<svg xmlns="http://www.w3.org/2000/svg" viewBox="0 0 993.38 815.34"><path d="M512.52,106.88v3.17a174.53,174.53,0,0,1,96.43,40l2.29-2.29c2.08-2.08,12.5-1.3,18.87-7.68s6-11.65,14.64-20.24,17-.2,17-.2,8.39,8.4-.2,17-13.86,8.26-20.24,14.64-5.6,16.79-7.68,18.87l-2.29,2.29c1.75,2.1,3.46,4.24,5.11,6.42l46-26.55a28.58,28.58,0,0,0,0-49.5L511,3.82a28.65,28.65,0,0,0-28.58,0l-171.46,99a28.58,28.58,0,0,0,0,49.5l46,26.55q2.49-3.27,5.11-6.42l-2.29-2.29c-2.08-2.08-1.3-12.5-7.68-18.87s-11.65-6.05-20.24-14.64-.2-17-.2-17,8.4-8.4,17,.2,8.27,13.86,14.64,20.24,16.79,5.6,18.87,7.68l2.29,2.29a174.68,174.68,0,0,1,96.43-40v-3.17c0-2.95,7.92-9.76,7.92-18.78s-4-12.52-4-24.67,11.87-12.15,11.87-12.15,11.87,0,11.87,12.15-4,15.65-4,24.67S512.52,103.94,512.52,106.88Z" fill="#fff"/><path d="M464.83,230.44a62.83,62.83,0,0,1,16-6.66V142.92a141.92,141.92,0,0,0-73.16,30.38Z" fill="#fff"/><path d="M585.69,173.31a141.92,141.92,0,0,0-73.16-30.38v80.86a62.33,62.33,0,0,1,16,6.66Z" fill="#fff"/><path d="M638.47,300.54H557.61a62.66,62.66,0,0,1-6.65,16L608.1,373.7A142,142,0,0,0,638.47,300.54Z" fill="#fff"/><path d="M528.55,339a62.83,62.83,0,0,1-16,6.66v80.86a141.92,141.92,0,0,0,73.16-30.38Z" fill="#fff"/><path d="M620.24,213.47l-69,39.84a62.45,62.45,0,0,1,6.38,15.55h80.86A141.73,141.73,0,0,0,620.24,213.47Z" fill="#fff"/><path d="M722,171.25a28.29,28.29,0,0,0-28.58,0l-44.81,25.87a174.09,174.09,0,0,1,22.78,71.75h3.17c3,0,9.76,7.92,18.78,7.92s12.52-4,24.67-4,12.15,11.87,12.15,11.87,0,11.87-12.15,11.87-15.65-4-24.67-4-15.83,7.92-18.78,7.92h-3.17a174.53,174.53,0,0,1-40,96.43l2.29,2.29c2.08,2.08,1.3,12.5,7.68,18.87s11.65,6.05,20.24,14.64.2,17,.2,17-8.4,8.4-17-.2-8.26-13.86-14.64-20.24-16.79-5.6-18.87-7.68L609,419.34a174.68,174.68,0,0,1-96.43,40v3.17c0,1.71-2.66,4.73-4.9,8.71V493a28.52,28.52,0,0,0,42.87,24.75l171.46-99A28.64,28.64,0,0,0,736.24,394V196A28.28,28.28,0,0,0,722,171.25Z" fill="#fff"/><path d="M385.29,373.7l57.14-57.14a62.83,62.83,0,0,1-6.66-16H354.91A142,142,0,0,0,385.29,373.7Z" fill="#fff"/><path d="M407.69,396.1a141.92,141.92,0,0,0,73.16,30.38V345.62a62.66,62.66,0,0,1-16-6.65Z" fill="#fff"/><path d="M480.86,459.36a174.53,174.53,0,0,1-96.43-40l-2.29,2.29c-2.08,2.08-12.5,1.3-18.87,7.68s-6,11.65-14.64,20.24-17,.2-17,.2-8.4-8.4.2-17,13.86-8.26,20.24-14.64,5.6-16.79,7.68-18.87l2.29-2.29a174.68,174.68,0,0,1-40-96.43h-3.17c-2.95,0-9.76-7.92-18.78-7.92s-12.52,4-24.67,4-12.15-11.87-12.15-11.87,0-11.87,12.15-11.87,15.65,4,24.67,4,15.83-7.92,18.78-7.92H322a174,174,0,0,1,22.78-71.75L300,171.26A28.58,28.58,0,0,0,257.14,196V394a28.67,28.67,0,0,0,14.29,24.75l171.46,99A28.58,28.58,0,0,0,485.76,493V471.25c-2.24-4-4.9-7-4.9-8.71Z" fill="#fff"/><path d="M354.91,268.87h80.86a62.45,62.45,0,0,1,6.38-15.55l-69-39.84A141.62,141.62,0,0,0,354.91,268.87Z" fill="#fff"/><path d="M432.18,590.17H216.4v-.31H174.12L95.51,683.5H37.89V589.86H0V815.34H37.89V721.7H95.51l78.61,93.64H216.4v-9.08L129.34,702.6l62.86-74.85H425.28c5.22,0,8.35.58,9.39,1.72s1.57,4.34,1.57,9.55v48.54q0,7.83-1.57,9.4c-1.05,1-4.18,1.56-9.39,1.56H297.83c-5.22,0-8.41-.52-9.55-1.56s-1.72-4.17-1.72-9.4V642.23H249v173.1h37.58V736.41h78.92l66.08,78.92h42.28v-8.77l-59.19-70.15h17.54a40.47,40.47,0,0,0,29.91-12.53q12.36-12.52,12.37-29.44v-62a42.47,42.47,0,0,0-42.29-42.26Z" fill="#fff"/><path d="M993.38,647.17v-15a40.51,40.51,0,0,0-12.53-29.91,40.93,40.93,0,0,0-29.75-12.37H809.86a42.24,42.24,0,0,0-42,42.28v47.29a40.87,40.87,0,0,0,12.37,29.75,40.12,40.12,0,0,0,29.59,12.53H944.21q7.83,0,9.55,1.56c1.14,1.05,1.72,4.18,1.72,9.39v34.45c0,5.22-.58,8.35-1.72,9.39s-4.34,1.57-9.55,1.57H556.5c-5.22,0-8.41-.57-9.55-1.72s-1.72-4.33-1.72-9.55V730.16q0-7.83,1.72-9.55t9.55-1.72H683.65c5.22,0,8.4.58,9.55,1.72s1.72,4.34,1.72,9.55v33.12h37.27v-40a41.29,41.29,0,0,0-1.72-11.74A42.69,42.69,0,0,0,725,700.1a44.77,44.77,0,0,0,5.32-11.59,41.49,41.49,0,0,0,1.88-11.9v-52.3q-2.82-14.09-14.72-24.27a40.77,40.77,0,0,0-27.25-10.18H549.92a41.69,41.69,0,0,0-42,42V676.6a38.15,38.15,0,0,0,2,12.06,59.81,59.81,0,0,0,5.17,11.43A74.39,74.39,0,0,0,510,711.52a35.16,35.16,0,0,0-2,11.74v50.11a42,42,0,0,0,42,42H951.09A40.89,40.89,0,0,0,980.84,803a40.48,40.48,0,0,0,12.53-29.91V725.76q0-17.22-12.53-29.75t-29.75-12.53H816.43q-7.83,0-9.39-1.57c-1-1-1.56-4.17-1.56-9.39V638.7q0-7.83,1.56-9.39t9.39-1.56H944.2q7.83,0,9.55,1.56c1.14,1.05,1.72,4.18,1.72,9.39v8.46h37.91Zm-448.15-8.46q0-7.83,1.72-9.55t9.55-1.72H683.65c5.22,0,8.4.58,9.55,1.72s1.72,4.34,1.72,9.55v34.76c0,5.22-.58,8.41-1.72,9.55s-4.34,1.72-9.55,1.72H556.5c-5.22,0-8.41-.57-9.55-1.72s-1.72-4.33-1.72-9.55Z" fill="#fff"/></svg>