<svg xmlns="http://www.w3.org/2000/svg" viewBox="0 0 993.38 225.48"><defs><style>.cls-1{fill:#fff;}</style></defs><g id="Layer_2" data-name="Layer 2"><g id="Layer_1-2" data-name="Layer 1"><path class="cls-1" d="M432.18.31H216.4V0H174.12L95.51,93.64H37.89V0H0V225.48H37.89V131.84H95.51l78.61,93.64H216.4V216.4L129.34,112.74,192.2,37.89H425.28c5.22,0,8.35.58,9.39,1.72s1.57,4.34,1.57,9.55V97.7q0,7.83-1.57,9.4c-1.05,1.05-4.18,1.56-9.39,1.56H297.83c-5.22,0-8.41-.52-9.55-1.56s-1.72-4.17-1.72-9.4V52.37H249v173.1h37.58V146.55h78.92l66.08,78.92h42.28V216.7l-59.19-70.15h17.54A40.47,40.47,0,0,0,462.1,134q12.36-12.53,12.37-29.44v-62A40.93,40.93,0,0,0,462.1,12.82,40.62,40.62,0,0,0,432.18.31Z"/><path class="cls-1" d="M993.38,57.31v-15a40.51,40.51,0,0,0-12.53-29.91A40.93,40.93,0,0,0,951.1,0H809.86a40.38,40.38,0,0,0-29.59,12.37A40.74,40.74,0,0,0,767.9,42.28V89.57a40.87,40.87,0,0,0,12.37,29.75,40.12,40.12,0,0,0,29.59,12.53H944.21q7.83,0,9.55,1.56c1.14,1.05,1.72,4.18,1.72,9.39v34.45c0,5.22-.58,8.35-1.72,9.39s-4.34,1.57-9.55,1.57H556.5c-5.22,0-8.41-.57-9.55-1.72s-1.72-4.33-1.72-9.55V140.3q0-7.83,1.72-9.55T556.5,129H683.65c5.22,0,8.4.58,9.55,1.72s1.72,4.34,1.72,9.55v33.12h37.27v-40a41.29,41.29,0,0,0-1.72-11.74A42.69,42.69,0,0,0,725,110.24a44.77,44.77,0,0,0,5.32-11.59,41.49,41.49,0,0,0,1.88-11.9V34.45q-2.82-14.09-14.72-24.27A40.77,40.77,0,0,0,690.22,0H549.92a40.49,40.49,0,0,0-29.75,12.21A40.49,40.49,0,0,0,508,42V86.74a38.15,38.15,0,0,0,2,12.06,59.81,59.81,0,0,0,5.17,11.43A74.39,74.39,0,0,0,510,121.66a35.16,35.16,0,0,0-2,11.74v50.11a42,42,0,0,0,42,42H951.09a40.89,40.89,0,0,0,29.75-12.37,40.48,40.48,0,0,0,12.53-29.91V135.9q0-17.22-12.53-29.75T951.09,93.62H816.43q-7.83,0-9.39-1.57c-1-1-1.56-4.17-1.56-9.39V48.84q0-7.83,1.56-9.39t9.39-1.56H944.2q7.83,0,9.55,1.56c1.14,1,1.72,4.18,1.72,9.39V57.3h37.91ZM545.23,48.85q0-7.83,1.72-9.55t9.55-1.72H683.65c5.22,0,8.4.58,9.55,1.72s1.72,4.34,1.72,9.55V83.61c0,5.22-.58,8.41-1.72,9.55s-4.34,1.72-9.55,1.72H556.5c-5.22,0-8.41-.57-9.55-1.72s-1.72-4.33-1.72-9.55Z"/></g></g></svg>