<svg xmlns="http://www.w3.org/2000/svg" viewBox="0 0 479.1 521.61"><defs><style>.cls-1{fill:#fff;}</style></defs><g id="Layer_2" data-name="Layer 2"><g id="Layer_1-2" data-name="Layer 1"><path class="cls-1" d="M255.38,106.88v3.17a174.53,174.53,0,0,1,96.43,40l2.29-2.29c2.08-2.08,12.5-1.3,18.87-7.68s6-11.65,14.64-20.24,17-.2,17-.2,8.39,8.4-.2,17-13.86,8.26-20.24,14.64-5.6,16.79-7.68,18.87l-2.29,2.29c1.75,2.1,3.46,4.24,5.11,6.42l46-26.55a28.58,28.58,0,0,0,0-49.5l-171.46-99a28.65,28.65,0,0,0-28.58,0l-171.46,99a28.58,28.58,0,0,0,0,49.5l46,26.55q2.49-3.27,5.11-6.42l-2.29-2.29c-2.08-2.08-1.3-12.5-7.68-18.87s-11.65-6.05-20.24-14.64-.2-17-.2-17,8.4-8.4,17,.2,8.27,13.86,14.64,20.24,16.79,5.6,18.87,7.68l2.29,2.29a174.68,174.68,0,0,1,96.43-40v-3.17c0-2.95,7.92-9.76,7.92-18.78s-4-12.52-4-24.67,11.87-12.15,11.87-12.15,11.87,0,11.87,12.15-4,15.65-4,24.67S255.38,103.94,255.38,106.88Z"/><path class="cls-1" d="M207.69,230.44a62.83,62.83,0,0,1,16-6.66V142.92a141.92,141.92,0,0,0-73.16,30.38Z"/><path class="cls-1" d="M328.55,173.31a141.92,141.92,0,0,0-73.16-30.38v80.86a62.33,62.33,0,0,1,16,6.66Z"/><path class="cls-1" d="M381.33,300.54H300.47a62.66,62.66,0,0,1-6.65,16L351,373.7A142,142,0,0,0,381.33,300.54Z"/><path class="cls-1" d="M271.41,339a62.83,62.83,0,0,1-16,6.66v80.86a141.92,141.92,0,0,0,73.16-30.38Z"/><path class="cls-1" d="M363.1,213.47l-69,39.84a62.45,62.45,0,0,1,6.38,15.55h80.86A141.73,141.73,0,0,0,363.1,213.47Z"/><path class="cls-1" d="M464.81,171.25a28.29,28.29,0,0,0-28.58,0l-44.81,25.87a174.09,174.09,0,0,1,22.78,71.75h3.17c2.95,0,9.76,7.92,18.78,7.92s12.52-4,24.67-4S473,284.7,473,284.7s0,11.87-12.15,11.87-15.65-4-24.67-4-15.83,7.92-18.78,7.92H414.2a174.53,174.53,0,0,1-40,96.43l2.29,2.29c2.08,2.08,1.3,12.5,7.68,18.87s11.65,6.05,20.24,14.64.2,17,.2,17-8.4,8.4-17-.2-8.26-13.86-14.64-20.24-16.79-5.6-18.87-7.68l-2.29-2.29a174.68,174.68,0,0,1-96.43,40v3.17c0,1.71-2.66,4.73-4.9,8.71V493a28.52,28.52,0,0,0,42.87,24.75l171.46-99A28.64,28.64,0,0,0,479.1,394V196A28.28,28.28,0,0,0,464.81,171.25Z"/><path class="cls-1" d="M128.15,373.7l57.14-57.14a62.83,62.83,0,0,1-6.66-16H97.77A142,142,0,0,0,128.15,373.7Z"/><path class="cls-1" d="M150.55,396.1a141.92,141.92,0,0,0,73.16,30.38V345.62a62.66,62.66,0,0,1-16-6.65Z"/><path class="cls-1" d="M223.72,459.36a174.53,174.53,0,0,1-96.43-40L125,421.64c-2.08,2.08-12.5,1.3-18.87,7.68s-6,11.65-14.64,20.24-17,.2-17,.2-8.4-8.4.2-17,13.86-8.26,20.24-14.64,5.6-16.79,7.68-18.87l2.29-2.29a174.68,174.68,0,0,1-40-96.43H61.73c-2.95,0-9.76-7.92-18.78-7.92s-12.52,4-24.67,4S6.13,284.71,6.13,284.71s0-11.87,12.15-11.87,15.65,4,24.67,4,15.83-7.92,18.78-7.92H64.9a174,174,0,0,1,22.78-71.75L42.87,171.26a28.27,28.27,0,0,0-28.58,0A28.29,28.29,0,0,0,0,196V394a28.67,28.67,0,0,0,14.29,24.75l171.46,99A28.58,28.58,0,0,0,228.62,493V471.25c-2.24-4-4.9-7-4.9-8.71Z"/><path class="cls-1" d="M97.77,268.87h80.86A62.45,62.45,0,0,1,185,253.32l-69-39.84A141.62,141.62,0,0,0,97.77,268.87Z"/></g></g></svg>